<svg xmlns="http://www.w3.org/2000/svg" xmlns:xlink="http://www.w3.org/1999/xlink" contentStyleType="text/css" data-diagram-type="CLASS" height="877px" preserveAspectRatio="none" style="width:667px;height:877px;background:#1B1B1B;" version="1.1" viewBox="0 0 667 877" width="667px" zoomAndPan="magnify"><defs/><g><rect fill="#1B1B1B" height="877" style="stroke:none;stroke-width:1;" width="667" x="0" y="0"/><!--class User--><g class="entity" data-entity="User" data-source-line="1" data-uid="ent0002" id="entity_User"><rect fill="#313139" height="162.0781" rx="2.5" ry="2.5" style="stroke:#E7E7E7;stroke-width:0.5;" width="232.1104" x="161.47" y="7"/><ellipse cx="257.3201" cy="23" fill="#2E5233" rx="11" ry="11" style="stroke:#E7E7E7;stroke-width:1;"/><path d="M261.4295,29 L253.7107,29 L253.7107,16.6094 L261.4295,16.6094 L261.4295,18.7656 L256.1638,18.7656 L256.1638,21.4375 L260.9295,21.4375 L260.9295,23.5938 L256.1638,23.5938 L256.1638,26.8438 L261.4295,26.8438 L261.4295,29 Z " fill="#FFFFFF"/><text fill="#FFFFFF" font-family="sans-serif" font-size="14" lengthAdjust="spacing" textLength="31.9102" x="277.8201" y="27.8467">User</text><line style="stroke:#E7E7E7;stroke-width:0.5;" x1="162.47" x2="392.5804" y1="39" y2="39"/><ellipse cx="172.47" cy="52.6484" fill="none" rx="3" ry="3" style="stroke:#038048;stroke-width:1;"/><text fill="#FFFFFF" font-family="sans-serif" font-size="14" lengthAdjust="spacing" textLength="121.3857" x="181.47" y="55.9951">user_id : int &#171;PK&#187;</text><ellipse cx="172.47" cy="68.9453" fill="none" rx="3" ry="3" style="stroke:#038048;stroke-width:1;"/><text fill="#FFFFFF" font-family="sans-serif" font-size="14" lengthAdjust="spacing" textLength="93.5088" x="181.47" y="72.292">name : string</text><ellipse cx="172.47" cy="85.2422" fill="none" rx="3" ry="3" style="stroke:#038048;stroke-width:1;"/><text fill="#FFFFFF" font-family="sans-serif" font-size="14" lengthAdjust="spacing" textLength="92.415" x="181.47" y="88.5889">email : string</text><ellipse cx="172.47" cy="101.5391" fill="none" rx="3" ry="3" style="stroke:#038048;stroke-width:1;"/><text fill="#FFFFFF" font-family="sans-serif" font-size="14" lengthAdjust="spacing" textLength="120.5176" x="181.47" y="104.8857">password : string</text><ellipse cx="172.47" cy="117.8359" fill="none" rx="3" ry="3" style="stroke:#038048;stroke-width:1;"/><text fill="#FFFFFF" font-family="sans-serif" font-size="14" lengthAdjust="spacing" textLength="98.7793" x="181.47" y="121.1826">latitude : float</text><ellipse cx="172.47" cy="134.1328" fill="none" rx="3" ry="3" style="stroke:#038048;stroke-width:1;"/><text fill="#FFFFFF" font-family="sans-serif" font-size="14" lengthAdjust="spacing" textLength="111.0361" x="181.47" y="137.4795">longitude : float</text><ellipse cx="172.47" cy="150.4297" fill="none" rx="3" ry="3" style="stroke:#038048;stroke-width:1;"/><text fill="#FFFFFF" font-family="sans-serif" font-size="14" lengthAdjust="spacing" textLength="206.1104" x="181.47" y="153.7764">insurance_providers : string[]</text><line style="stroke:#E7E7E7;stroke-width:0.5;" x1="162.47" x2="392.5804" y1="161.0781" y2="161.0781"/></g><!--class Pharmacy--><g class="entity" data-entity="Pharmacy" data-source-line="11" data-uid="ent0003" id="entity_Pharmacy"><rect fill="#313139" height="178.375" rx="2.5" ry="2.5" style="stroke:#E7E7E7;stroke-width:0.5;" width="187.1436" x="472.96" y="452.57"/><ellipse cx="527.357" cy="468.57" fill="#2E5233" rx="11" ry="11" style="stroke:#E7E7E7;stroke-width:1;"/><path d="M531.4663,474.57 L523.7476,474.57 L523.7476,462.1794 L531.4663,462.1794 L531.4663,464.3356 L526.2007,464.3356 L526.2007,467.0075 L530.9663,467.0075 L530.9663,469.1638 L526.2007,469.1638 L526.2007,472.4138 L531.4663,472.4138 L531.4663,474.57 Z " fill="#FFFFFF"/><text fill="#FFFFFF" font-family="sans-serif" font-size="14" lengthAdjust="spacing" textLength="69.8496" x="547.857" y="473.4167">Pharmacy</text><line style="stroke:#E7E7E7;stroke-width:0.5;" x1="473.96" x2="659.1036" y1="484.57" y2="484.57"/><ellipse cx="483.96" cy="498.2184" fill="none" rx="3" ry="3" style="stroke:#038048;stroke-width:1;"/><text fill="#FFFFFF" font-family="sans-serif" font-size="14" lengthAdjust="spacing" textLength="161.1436" x="492.96" y="501.5651">pharmacy_id : int &#171;PK&#187;</text><ellipse cx="483.96" cy="514.5153" fill="none" rx="3" ry="3" style="stroke:#038048;stroke-width:1;"/><text fill="#FFFFFF" font-family="sans-serif" font-size="14" lengthAdjust="spacing" textLength="93.5088" x="492.96" y="517.862">name : string</text><ellipse cx="483.96" cy="530.8122" fill="none" rx="3" ry="3" style="stroke:#038048;stroke-width:1;"/><text fill="#FFFFFF" font-family="sans-serif" font-size="14" lengthAdjust="spacing" textLength="92.415" x="492.96" y="534.1589">email : string</text><ellipse cx="483.96" cy="547.1091" fill="none" rx="3" ry="3" style="stroke:#038048;stroke-width:1;"/><text fill="#FFFFFF" font-family="sans-serif" font-size="14" lengthAdjust="spacing" textLength="97.6172" x="492.96" y="550.4557">phone : string</text><ellipse cx="483.96" cy="563.4059" fill="none" rx="3" ry="3" style="stroke:#038048;stroke-width:1;"/><text fill="#FFFFFF" font-family="sans-serif" font-size="14" lengthAdjust="spacing" textLength="109.1152" x="492.96" y="566.7526">address : string</text><ellipse cx="483.96" cy="579.7028" fill="none" rx="3" ry="3" style="stroke:#038048;stroke-width:1;"/><text fill="#FFFFFF" font-family="sans-serif" font-size="14" lengthAdjust="spacing" textLength="98.7793" x="492.96" y="583.0495">latitude : float</text><ellipse cx="483.96" cy="595.9997" fill="none" rx="3" ry="3" style="stroke:#038048;stroke-width:1;"/><text fill="#FFFFFF" font-family="sans-serif" font-size="14" lengthAdjust="spacing" textLength="111.0361" x="492.96" y="599.3464">longitude : float</text><ellipse cx="483.96" cy="612.2966" fill="none" rx="3" ry="3" style="stroke:#038048;stroke-width:1;"/><text fill="#FFFFFF" font-family="sans-serif" font-size="14" lengthAdjust="spacing" textLength="130.3271" x="492.96" y="615.6432">is_active : boolean</text><line style="stroke:#E7E7E7;stroke-width:0.5;" x1="473.96" x2="659.1036" y1="622.945" y2="622.945"/></g><!--class Product--><g class="entity" data-entity="Product" data-source-line="22" data-uid="ent0004" id="entity_Product"><rect fill="#313139" height="162.0781" rx="2.5" ry="2.5" style="stroke:#E7E7E7;stroke-width:0.5;" width="243.8682" x="212.59" y="707.94"/><ellipse cx="303.4191" cy="723.94" fill="#2E5233" rx="11" ry="11" style="stroke:#E7E7E7;stroke-width:1;"/><path d="M307.5285,729.94 L299.8097,729.94 L299.8097,717.5494 L307.5285,717.5494 L307.5285,719.7056 L302.2629,719.7056 L302.2629,722.3775 L307.0285,722.3775 L307.0285,724.5337 L302.2629,724.5337 L302.2629,727.7837 L307.5285,727.7837 L307.5285,729.94 Z " fill="#FFFFFF"/><text fill="#FFFFFF" font-family="sans-serif" font-size="14" lengthAdjust="spacing" textLength="53.71" x="323.9191" y="728.7867">Product</text><line style="stroke:#E7E7E7;stroke-width:0.5;" x1="213.59" x2="455.4582" y1="739.94" y2="739.94"/><ellipse cx="223.59" cy="753.5884" fill="none" rx="3" ry="3" style="stroke:#038048;stroke-width:1;"/><text fill="#FFFFFF" font-family="sans-serif" font-size="14" lengthAdjust="spacing" textLength="145.0039" x="232.59" y="756.9351">product_id : int &#171;PK&#187;</text><ellipse cx="223.59" cy="769.8853" fill="none" rx="3" ry="3" style="stroke:#038048;stroke-width:1;"/><text fill="#FFFFFF" font-family="sans-serif" font-size="14" lengthAdjust="spacing" textLength="93.5088" x="232.59" y="773.232">name : string</text><ellipse cx="223.59" cy="786.1822" fill="none" rx="3" ry="3" style="stroke:#038048;stroke-width:1;"/><text fill="#FFFFFF" font-family="sans-serif" font-size="14" lengthAdjust="spacing" textLength="131.6465" x="232.59" y="789.5289">description : string</text><ellipse cx="223.59" cy="802.4791" fill="none" rx="3" ry="3" style="stroke:#038048;stroke-width:1;"/><text fill="#FFFFFF" font-family="sans-serif" font-size="14" lengthAdjust="spacing" textLength="115.6777" x="232.59" y="805.8257">category : string</text><ellipse cx="223.59" cy="818.7759" fill="none" rx="3" ry="3" style="stroke:#038048;stroke-width:1;"/><text fill="#FFFFFF" font-family="sans-serif" font-size="14" lengthAdjust="spacing" textLength="79.9121" x="232.59" y="822.1226">price : float</text><ellipse cx="223.59" cy="835.0728" fill="none" rx="3" ry="3" style="stroke:#038048;stroke-width:1;"/><text fill="#FFFFFF" font-family="sans-serif" font-size="14" lengthAdjust="spacing" textLength="217.8682" x="232.59" y="838.4195">requires_prescription : boolean</text><ellipse cx="223.59" cy="851.3697" fill="none" rx="3" ry="3" style="stroke:#038048;stroke-width:1;"/><text fill="#FFFFFF" font-family="sans-serif" font-size="14" lengthAdjust="spacing" textLength="160.7539" x="232.59" y="854.7164">pharmacy_id : int &#171;FK&#187;</text><line style="stroke:#E7E7E7;stroke-width:0.5;" x1="213.59" x2="455.4582" y1="862.0181" y2="862.0181"/></g><!--class Order--><g class="entity" data-entity="Order" data-source-line="32" data-uid="ent0005" id="entity_Order"><rect fill="#313139" height="129.4844" rx="2.5" ry="2.5" style="stroke:#E7E7E7;stroke-width:0.5;" width="177.5186" x="188.77" y="246.08"/><ellipse cx="253.2637" cy="262.08" fill="#2E5233" rx="11" ry="11" style="stroke:#E7E7E7;stroke-width:1;"/><path d="M257.373,268.08 L249.6543,268.08 L249.6543,255.6894 L257.373,255.6894 L257.373,257.8456 L252.1074,257.8456 L252.1074,260.5175 L256.873,260.5175 L256.873,262.6737 L252.1074,262.6737 L252.1074,265.9237 L257.373,265.9237 L257.373,268.08 Z " fill="#FFFFFF"/><text fill="#FFFFFF" font-family="sans-serif" font-size="14" lengthAdjust="spacing" textLength="40.0313" x="273.7637" y="266.9267">Order</text><line style="stroke:#E7E7E7;stroke-width:0.5;" x1="189.77" x2="365.2886" y1="278.08" y2="278.08"/><ellipse cx="199.77" cy="291.7284" fill="none" rx="3" ry="3" style="stroke:#038048;stroke-width:1;"/><text fill="#FFFFFF" font-family="sans-serif" font-size="14" lengthAdjust="spacing" textLength="128.4268" x="208.77" y="295.0751">order_id : int &#171;PK&#187;</text><ellipse cx="199.77" cy="308.0253" fill="none" rx="3" ry="3" style="stroke:#038048;stroke-width:1;"/><text fill="#FFFFFF" font-family="sans-serif" font-size="14" lengthAdjust="spacing" textLength="120.9961" x="208.77" y="311.372">user_id : int &#171;FK&#187;</text><ellipse cx="199.77" cy="324.3222" fill="none" rx="3" ry="3" style="stroke:#038048;stroke-width:1;"/><text fill="#FFFFFF" font-family="sans-serif" font-size="14" lengthAdjust="spacing" textLength="118.9248" x="208.77" y="327.6689">total_price : float</text><ellipse cx="199.77" cy="340.6191" fill="none" rx="3" ry="3" style="stroke:#038048;stroke-width:1;"/><text fill="#FFFFFF" font-family="sans-serif" font-size="14" lengthAdjust="spacing" textLength="96.8242" x="208.77" y="343.9657">status : string</text><ellipse cx="199.77" cy="356.9159" fill="none" rx="3" ry="3" style="stroke:#038048;stroke-width:1;"/><text fill="#FFFFFF" font-family="sans-serif" font-size="14" lengthAdjust="spacing" textLength="151.5186" x="208.77" y="360.2626">created_at : datetime</text><line style="stroke:#E7E7E7;stroke-width:0.5;" x1="189.77" x2="365.2886" y1="367.5644" y2="367.5644"/></g><!--class OrderItem--><g class="entity" data-entity="OrderItem" data-source-line="40" data-uid="ent0006" id="entity_OrderItem"><rect fill="#313139" height="129.4844" rx="2.5" ry="2.5" style="stroke:#E7E7E7;stroke-width:0.5;" width="193.0566" x="7" y="477.01"/><ellipse cx="63.3281" cy="493.01" fill="#2E5233" rx="11" ry="11" style="stroke:#E7E7E7;stroke-width:1;"/><path d="M67.4375,499.01 L59.7188,499.01 L59.7188,486.6194 L67.4375,486.6194 L67.4375,488.7756 L62.1719,488.7756 L62.1719,491.4475 L66.9375,491.4475 L66.9375,493.6038 L62.1719,493.6038 L62.1719,496.8538 L67.4375,496.8538 L67.4375,499.01 Z " fill="#FFFFFF"/><text fill="#FFFFFF" font-family="sans-serif" font-size="14" lengthAdjust="spacing" textLength="71.9004" x="83.8281" y="497.8567">OrderItem</text><line style="stroke:#E7E7E7;stroke-width:0.5;" x1="8" x2="199.0566" y1="509.01" y2="509.01"/><ellipse cx="18" cy="522.6584" fill="none" rx="3" ry="3" style="stroke:#038048;stroke-width:1;"/><text fill="#FFFFFF" font-family="sans-serif" font-size="14" lengthAdjust="spacing" textLength="167.0566" x="27" y="526.0051">order_item_id : int &#171;PK&#187;</text><ellipse cx="18" cy="538.9553" fill="none" rx="3" ry="3" style="stroke:#038048;stroke-width:1;"/><text fill="#FFFFFF" font-family="sans-serif" font-size="14" lengthAdjust="spacing" textLength="128.0371" x="27" y="542.302">order_id : int &#171;FK&#187;</text><ellipse cx="18" cy="555.2522" fill="none" rx="3" ry="3" style="stroke:#038048;stroke-width:1;"/><text fill="#FFFFFF" font-family="sans-serif" font-size="14" lengthAdjust="spacing" textLength="144.6143" x="27" y="558.5989">product_id : int &#171;FK&#187;</text><ellipse cx="18" cy="571.5491" fill="none" rx="3" ry="3" style="stroke:#038048;stroke-width:1;"/><text fill="#FFFFFF" font-family="sans-serif" font-size="14" lengthAdjust="spacing" textLength="90.2344" x="27" y="574.8957">quantity : int</text><ellipse cx="18" cy="587.8459" fill="none" rx="3" ry="3" style="stroke:#038048;stroke-width:1;"/><text fill="#FFFFFF" font-family="sans-serif" font-size="14" lengthAdjust="spacing" textLength="79.9121" x="27" y="591.1926">price : float</text><line style="stroke:#E7E7E7;stroke-width:0.5;" x1="8" x2="199.0566" y1="598.4944" y2="598.4944"/></g><!--class Payment--><g class="entity" data-entity="Payment" data-source-line="48" data-uid="ent0007" id="entity_Payment"><rect fill="#313139" height="129.4844" rx="2.5" ry="2.5" style="stroke:#E7E7E7;stroke-width:0.5;" width="203.748" x="234.65" y="477.01"/><ellipse cx="301.3141" cy="493.01" fill="#2E5233" rx="11" ry="11" style="stroke:#E7E7E7;stroke-width:1;"/><path d="M305.4234,499.01 L297.7047,499.01 L297.7047,486.6194 L305.4234,486.6194 L305.4234,488.7756 L300.1578,488.7756 L300.1578,491.4475 L304.9234,491.4475 L304.9234,493.6038 L300.1578,493.6038 L300.1578,496.8538 L305.4234,496.8538 L305.4234,499.01 Z " fill="#FFFFFF"/><text fill="#FFFFFF" font-family="sans-serif" font-size="14" lengthAdjust="spacing" textLength="61.9199" x="321.8141" y="497.8567">Payment</text><line style="stroke:#E7E7E7;stroke-width:0.5;" x1="235.65" x2="437.398" y1="509.01" y2="509.01"/><ellipse cx="245.65" cy="522.6584" fill="none" rx="3" ry="3" style="stroke:#038048;stroke-width:1;"/><text fill="#FFFFFF" font-family="sans-serif" font-size="14" lengthAdjust="spacing" textLength="153.2139" x="254.65" y="526.0051">payment_id : int &#171;PK&#187;</text><ellipse cx="245.65" cy="538.9553" fill="none" rx="3" ry="3" style="stroke:#038048;stroke-width:1;"/><text fill="#FFFFFF" font-family="sans-serif" font-size="14" lengthAdjust="spacing" textLength="128.0371" x="254.65" y="542.302">order_id : int &#171;FK&#187;</text><ellipse cx="245.65" cy="555.2522" fill="none" rx="3" ry="3" style="stroke:#038048;stroke-width:1;"/><text fill="#FFFFFF" font-family="sans-serif" font-size="14" lengthAdjust="spacing" textLength="99.0869" x="254.65" y="558.5989">amount : float</text><ellipse cx="245.65" cy="571.5491" fill="none" rx="3" ry="3" style="stroke:#038048;stroke-width:1;"/><text fill="#FFFFFF" font-family="sans-serif" font-size="14" lengthAdjust="spacing" textLength="166.1885" x="254.65" y="574.8957">payment_status : string</text><ellipse cx="245.65" cy="587.8459" fill="none" rx="3" ry="3" style="stroke:#038048;stroke-width:1;"/><text fill="#FFFFFF" font-family="sans-serif" font-size="14" lengthAdjust="spacing" textLength="177.748" x="254.65" y="591.1926">payment_date : datetime</text><line style="stroke:#E7E7E7;stroke-width:0.5;" x1="235.65" x2="437.398" y1="598.4944" y2="598.4944"/></g><!--link User to Order--><g class="link" data-entity-1="User" data-entity-2="Order" data-source-line="56" data-uid="lnk8" id="link_User_Order"><path codeLine="56" d="M277.53,177.38 C277.53,202.53 277.53,203.93 277.53,227.8" fill="none" id="User-Order" style="stroke:#E7E7E7;stroke-width:1;"/><line style="stroke:#E7E7E7;stroke-width:1;" x1="273.53" x2="281.53" y1="173.38" y2="173.38"/><line style="stroke:#E7E7E7;stroke-width:1;" x1="273.53" x2="281.53" y1="176.38" y2="176.38"/><line style="stroke:#E7E7E7;stroke-width:1;" x1="277.53" x2="277.53" y1="177.38" y2="169.38"/><line style="stroke:#E7E7E7;stroke-width:1;" x1="277.53" x2="283.53" y1="237.8" y2="245.8"/><line style="stroke:#E7E7E7;stroke-width:1;" x1="277.53" x2="271.53" y1="237.8" y2="245.8"/><line style="stroke:#E7E7E7;stroke-width:1;" x1="277.53" x2="277.53" y1="237.8" y2="245.8"/><ellipse cx="277.53" cy="231.8" fill="none" rx="4" ry="4" style="stroke:#E7E7E7;stroke-width:1;"/><text fill="#FFFFFF" font-family="sans-serif" font-size="13" lengthAdjust="spacing" textLength="41.7485" x="278.53" y="212.1469">places</text></g><!--link Order to OrderItem--><g class="link" data-entity-1="Order" data-entity-2="OrderItem" data-source-line="57" data-uid="lnk9" id="link_Order_OrderItem"><path codeLine="57" d="M223.9887,382.2688 C200.0587,413.7488 187.0301,430.888 163.1101,462.368" fill="none" id="Order-OrderItem" style="stroke:#E7E7E7;stroke-width:1;"/><line style="stroke:#E7E7E7;stroke-width:1;" x1="223.2249" x2="229.5937" y1="376.6637" y2="381.5051"/><line style="stroke:#E7E7E7;stroke-width:1;" x1="221.4094" x2="227.7782" y1="379.052" y2="383.8934"/><line style="stroke:#E7E7E7;stroke-width:1;" x1="223.9887" x2="228.83" y1="382.2688" y2="375.9"/><line style="stroke:#E7E7E7;stroke-width:1;" x1="157.0601" x2="156.9973" y1="470.3302" y2="480.33"/><line style="stroke:#E7E7E7;stroke-width:1;" x1="157.0601" x2="147.4427" y1="470.3302" y2="473.07"/><line style="stroke:#E7E7E7;stroke-width:1;" x1="157.0601" x2="152.22" y1="470.3302" y2="476.7"/><ellipse cx="160.6901" cy="465.5529" fill="none" rx="4" ry="4" style="stroke:#E7E7E7;stroke-width:1;"/><text fill="#FFFFFF" font-family="sans-serif" font-size="13" lengthAdjust="spacing" textLength="55.0278" x="207.53" y="418.6369">contains</text></g><!--link OrderItem to Product--><g class="link" data-entity-1="OrderItem" data-entity-2="Product" data-source-line="58" data-uid="lnk10" id="link_OrderItem_Product"><path codeLine="58" d="M176.2615,619.963 C205.2715,650.763 222.505,669.0564 253.285,701.7364" fill="none" id="OrderItem-Product" style="stroke:#E7E7E7;stroke-width:1;"/><line style="stroke:#E7E7E7;stroke-width:1;" x1="169.4051" x2="159.5523" y1="612.6835" y2="610.9738"/><line style="stroke:#E7E7E7;stroke-width:1;" x1="169.4051" x2="168.2877" y1="612.6835" y2="602.7462"/><line style="stroke:#E7E7E7;stroke-width:1;" x1="169.4051" x2="163.92" y1="612.6835" y2="606.86"/><ellipse cx="173.5189" cy="617.0512" fill="none" rx="4" ry="4" style="stroke:#E7E7E7;stroke-width:1;"/><line style="stroke:#E7E7E7;stroke-width:1;" x1="258.9393" x2="253.1157" y1="701.9057" y2="707.3907"/><line style="stroke:#E7E7E7;stroke-width:1;" x1="256.8824" x2="251.0588" y1="699.7218" y2="705.2069"/><line style="stroke:#E7E7E7;stroke-width:1;" x1="253.285" x2="258.77" y1="701.7364" y2="707.56"/><text fill="#FFFFFF" font-family="sans-serif" font-size="13" lengthAdjust="spacing" textLength="53.8726" x="227.53" y="674.0069">includes</text></g><!--link Pharmacy to Product--><g class="link" data-entity-1="Pharmacy" data-entity-2="Product" data-source-line="59" data-uid="lnk11" id="link_Pharmacy_Product"><path codeLine="59" d="M477.2724,637.1018 C453.6524,662.0718 445.9602,670.1941 422.8202,694.6541" fill="none" id="Pharmacy-Product" style="stroke:#E7E7E7;stroke-width:1;"/><line style="stroke:#E7E7E7;stroke-width:1;" x1="477.1153" x2="482.9271" y1="631.4471" y2="636.9447"/><line style="stroke:#E7E7E7;stroke-width:1;" x1="475.0537" x2="480.8655" y1="633.6265" y2="639.1241"/><line style="stroke:#E7E7E7;stroke-width:1;" x1="477.2724" x2="482.77" y1="637.1018" y2="631.29"/><line style="stroke:#E7E7E7;stroke-width:1;" x1="415.9479" x2="414.8086" y1="701.9185" y2="711.8534"/><line style="stroke:#E7E7E7;stroke-width:1;" x1="415.9479" x2="406.0914" y1="701.9185" y2="703.6066"/><line style="stroke:#E7E7E7;stroke-width:1;" x1="415.9479" x2="410.45" y1="701.9185" y2="707.73"/><ellipse cx="420.0713" cy="697.5599" fill="none" rx="4" ry="4" style="stroke:#E7E7E7;stroke-width:1;"/><text fill="#FFFFFF" font-family="sans-serif" font-size="13" lengthAdjust="spacing" textLength="37.2227" x="451.53" y="674.0069">offers</text></g><!--link Order to Payment--><g class="link" data-entity-1="Order" data-entity-2="Payment" data-source-line="60" data-uid="lnk12" id="link_Order_Payment"><path codeLine="60" d="M296.0381,383.6464 C304.1581,415.1264 307.4194,427.7892 315.5294,459.2692" fill="none" id="Order-Payment" style="stroke:#E7E7E7;stroke-width:1;"/><line style="stroke:#E7E7E7;stroke-width:1;" x1="291.1658" x2="298.9123" y1="380.7723" y2="378.7742"/><line style="stroke:#E7E7E7;stroke-width:1;" x1="291.9151" x2="299.6616" y1="383.6772" y2="381.6791"/><line style="stroke:#E7E7E7;stroke-width:1;" x1="296.0381" x2="294.04" y1="383.6464" y2="375.9"/><line style="stroke:#E7E7E7;stroke-width:1;" x1="318.0242" x2="325.8303" y1="468.953" y2="475.2031"/><line style="stroke:#E7E7E7;stroke-width:1;" x1="318.0242" x2="314.2097" y1="468.953" y2="478.1969"/><line style="stroke:#E7E7E7;stroke-width:1;" x1="318.0242" x2="320.02" y1="468.953" y2="476.7"/><ellipse cx="316.5273" cy="463.1427" fill="none" rx="4" ry="4" style="stroke:#E7E7E7;stroke-width:1;"/><text fill="#FFFFFF" font-family="sans-serif" font-size="13" lengthAdjust="spacing" textLength="52.0063" x="305.53" y="418.6369">initiates</text></g><!--SRC=[fLFBQiCm4BpxAqIknJzGGew1qaDpwQaKivMKH61h7McLOkByUzVFHBOBVToqC_PgPhIhBHcgnEhLQxSIbqI81n7ud1ab7eMn9DRhtVDcqn8M2ise9sVieKLq0IQFeHAy_qIdOZG7lYUevlTzZa0TYFOmHutrmO6LEYiTdetIpe-ztjwJQvBeNlJk2Au0MGt2oxx-X_WZsibNe9JJtl_TZiz0aZatw0TYhi567Xog86cqq9K_TA2qbywKPD36X0JI1tJLn9qpCXRdz2aOjiTHHwq6eT-bkcqqtRbuSUesFzWKYmwcaxKT24A2F9lhymGK9jbBfzcToe0OLtmaK-YPc2VInKGG8ukgPdf7MGklCNAd0DrzBREGx_qZGrNmUNpahlob62WmM8hY6HejnJHmJKAJe9fb5tMTfdWHRLZCbpb8xPEklEUQ89cNQ0buDPCRUCKqhMlHJt0hMEOy_ZuP5dDeTFi4ztlUv_YQFfssWI73GlqN]--></g></svg>