<svg xmlns="http://www.w3.org/2000/svg" xmlns:xlink="http://www.w3.org/1999/xlink" contentStyleType="text/css" data-diagram-type="CLASS" height="877px" preserveAspectRatio="none" style="width:574px;height:877px;background:#1B1B1B;" version="1.1" viewBox="0 0 574 877" width="574px" zoomAndPan="magnify"><defs/><g><rect fill="#1B1B1B" height="877" style="stroke:none;stroke-width:1;" width="574" x="0" y="0"/><!--class User--><g class="entity" data-entity="User" data-source-line="1" data-uid="ent0002" id="entity_User"><rect fill="#313139" height="129.4844" rx="2.5" ry="2.5" style="stroke:#E7E7E7;stroke-width:0.5;" width="232.1104" x="90.82" y="23.3"/><ellipse cx="186.6701" cy="39.3" fill="#2E5233" rx="11" ry="11" style="stroke:#E7E7E7;stroke-width:1;"/><path d="M190.7795,45.3 L183.0607,45.3 L183.0607,32.9094 L190.7795,32.9094 L190.7795,35.0656 L185.5138,35.0656 L185.5138,37.7375 L190.2795,37.7375 L190.2795,39.8937 L185.5138,39.8937 L185.5138,43.1437 L190.7795,43.1437 L190.7795,45.3 Z " fill="#FFFFFF"/><text fill="#FFFFFF" font-family="sans-serif" font-size="14" lengthAdjust="spacing" textLength="31.9102" x="207.1701" y="44.1467">User</text><line style="stroke:#E7E7E7;stroke-width:0.5;" x1="91.82" x2="321.9304" y1="55.3" y2="55.3"/><ellipse cx="101.82" cy="68.9484" fill="none" rx="3" ry="3" style="stroke:#038048;stroke-width:1;"/><text fill="#FFFFFF" font-family="sans-serif" font-size="14" lengthAdjust="spacing" textLength="121.3857" x="110.82" y="72.2951">user_id : int &#171;PK&#187;</text><ellipse cx="101.82" cy="85.2453" fill="none" rx="3" ry="3" style="stroke:#038048;stroke-width:1;"/><text fill="#FFFFFF" font-family="sans-serif" font-size="14" lengthAdjust="spacing" textLength="93.5088" x="110.82" y="88.592">name : string</text><ellipse cx="101.82" cy="101.5422" fill="none" rx="3" ry="3" style="stroke:#038048;stroke-width:1;"/><text fill="#FFFFFF" font-family="sans-serif" font-size="14" lengthAdjust="spacing" textLength="92.415" x="110.82" y="104.8889">email : string</text><ellipse cx="101.82" cy="117.8391" fill="none" rx="3" ry="3" style="stroke:#038048;stroke-width:1;"/><text fill="#FFFFFF" font-family="sans-serif" font-size="14" lengthAdjust="spacing" textLength="120.5176" x="110.82" y="121.1857">password : string</text><ellipse cx="101.82" cy="134.1359" fill="none" rx="3" ry="3" style="stroke:#038048;stroke-width:1;"/><text fill="#FFFFFF" font-family="sans-serif" font-size="14" lengthAdjust="spacing" textLength="206.1104" x="110.82" y="137.4826">insurance_providers : string[]</text><line style="stroke:#E7E7E7;stroke-width:0.5;" x1="91.82" x2="321.9304" y1="144.7844" y2="144.7844"/></g><!--class Location--><g class="entity" data-entity="Location" data-source-line="9" data-uid="ent0003" id="entity_Location"><rect fill="#313139" height="178.375" rx="2.5" ry="2.5" style="stroke:#E7E7E7;stroke-width:0.5;" width="172.3984" x="266.67" y="246.08"/><ellipse cx="318.8897" cy="262.08" fill="#2E5233" rx="11" ry="11" style="stroke:#E7E7E7;stroke-width:1;"/><path d="M322.9991,268.08 L315.2804,268.08 L315.2804,255.6894 L322.9991,255.6894 L322.9991,257.8456 L317.7335,257.8456 L317.7335,260.5175 L322.4991,260.5175 L322.4991,262.6737 L317.7335,262.6737 L317.7335,265.9237 L322.9991,265.9237 L322.9991,268.08 Z " fill="#FFFFFF"/><text fill="#FFFFFF" font-family="sans-serif" font-size="14" lengthAdjust="spacing" textLength="59.459" x="339.3897" y="266.9267">Location</text><line style="stroke:#E7E7E7;stroke-width:0.5;" x1="267.67" x2="438.0684" y1="278.08" y2="278.08"/><ellipse cx="277.67" cy="291.7284" fill="none" rx="3" ry="3" style="stroke:#038048;stroke-width:1;"/><text fill="#FFFFFF" font-family="sans-serif" font-size="14" lengthAdjust="spacing" textLength="146.3984" x="286.67" y="295.0751">location_id : int &#171;PK&#187;</text><ellipse cx="277.67" cy="308.0253" fill="none" rx="3" ry="3" style="stroke:#038048;stroke-width:1;"/><text fill="#FFFFFF" font-family="sans-serif" font-size="14" lengthAdjust="spacing" textLength="107.3447" x="286.67" y="311.372">country : string</text><ellipse cx="277.67" cy="324.3222" fill="none" rx="3" ry="3" style="stroke:#038048;stroke-width:1;"/><text fill="#FFFFFF" font-family="sans-serif" font-size="14" lengthAdjust="spacing" textLength="114.3721" x="286.67" y="327.6689">province : string</text><ellipse cx="277.67" cy="340.6191" fill="none" rx="3" ry="3" style="stroke:#038048;stroke-width:1;"/><text fill="#FFFFFF" font-family="sans-serif" font-size="14" lengthAdjust="spacing" textLength="102.1973" x="286.67" y="343.9657">district : string</text><ellipse cx="277.67" cy="356.9159" fill="none" rx="3" ry="3" style="stroke:#038048;stroke-width:1;"/><text fill="#FFFFFF" font-family="sans-serif" font-size="14" lengthAdjust="spacing" textLength="97.2207" x="286.67" y="360.2626">sector : string</text><ellipse cx="277.67" cy="373.2128" fill="none" rx="3" ry="3" style="stroke:#038048;stroke-width:1;"/><text fill="#FFFFFF" font-family="sans-serif" font-size="14" lengthAdjust="spacing" textLength="99.8389" x="286.67" y="376.5595">village : string</text><ellipse cx="277.67" cy="389.5097" fill="none" rx="3" ry="3" style="stroke:#038048;stroke-width:1;"/><text fill="#FFFFFF" font-family="sans-serif" font-size="14" lengthAdjust="spacing" textLength="98.7793" x="286.67" y="392.8564">latitude : float</text><ellipse cx="277.67" cy="405.8066" fill="none" rx="3" ry="3" style="stroke:#038048;stroke-width:1;"/><text fill="#FFFFFF" font-family="sans-serif" font-size="14" lengthAdjust="spacing" textLength="111.0361" x="286.67" y="409.1532">longitude : float</text><line style="stroke:#E7E7E7;stroke-width:0.5;" x1="267.67" x2="438.0684" y1="416.455" y2="416.455"/></g><!--class Pharmacy--><g class="entity" data-entity="Pharmacy" data-source-line="20" data-uid="ent0004" id="entity_Pharmacy"><rect fill="#313139" height="162.0781" rx="2.5" ry="2.5" style="stroke:#E7E7E7;stroke-width:0.5;" width="187.1436" x="380.3" y="7"/><ellipse cx="434.697" cy="23" fill="#2E5233" rx="11" ry="11" style="stroke:#E7E7E7;stroke-width:1;"/><path d="M438.8063,29 L431.0876,29 L431.0876,16.6094 L438.8063,16.6094 L438.8063,18.7656 L433.5407,18.7656 L433.5407,21.4375 L438.3063,21.4375 L438.3063,23.5938 L433.5407,23.5938 L433.5407,26.8438 L438.8063,26.8438 L438.8063,29 Z " fill="#FFFFFF"/><text fill="#FFFFFF" font-family="sans-serif" font-size="14" lengthAdjust="spacing" textLength="69.8496" x="455.197" y="27.8467">Pharmacy</text><line style="stroke:#E7E7E7;stroke-width:0.5;" x1="381.3" x2="566.4436" y1="39" y2="39"/><ellipse cx="391.3" cy="52.6484" fill="none" rx="3" ry="3" style="stroke:#038048;stroke-width:1;"/><text fill="#FFFFFF" font-family="sans-serif" font-size="14" lengthAdjust="spacing" textLength="161.1436" x="400.3" y="55.9951">pharmacy_id : int &#171;PK&#187;</text><ellipse cx="391.3" cy="68.9453" fill="none" rx="3" ry="3" style="stroke:#038048;stroke-width:1;"/><text fill="#FFFFFF" font-family="sans-serif" font-size="14" lengthAdjust="spacing" textLength="93.5088" x="400.3" y="72.292">name : string</text><ellipse cx="391.3" cy="85.2422" fill="none" rx="3" ry="3" style="stroke:#038048;stroke-width:1;"/><text fill="#FFFFFF" font-family="sans-serif" font-size="14" lengthAdjust="spacing" textLength="92.415" x="400.3" y="88.5889">email : string</text><ellipse cx="391.3" cy="101.5391" fill="none" rx="3" ry="3" style="stroke:#038048;stroke-width:1;"/><text fill="#FFFFFF" font-family="sans-serif" font-size="14" lengthAdjust="spacing" textLength="97.6172" x="400.3" y="104.8857">phone : string</text><ellipse cx="391.3" cy="117.8359" fill="none" rx="3" ry="3" style="stroke:#038048;stroke-width:1;"/><text fill="#FFFFFF" font-family="sans-serif" font-size="14" lengthAdjust="spacing" textLength="109.1152" x="400.3" y="121.1826">address : string</text><ellipse cx="391.3" cy="134.1328" fill="none" rx="3" ry="3" style="stroke:#038048;stroke-width:1;"/><text fill="#FFFFFF" font-family="sans-serif" font-size="14" lengthAdjust="spacing" textLength="130.3271" x="400.3" y="137.4795">is_active : boolean</text><ellipse cx="391.3" cy="150.4297" fill="none" rx="3" ry="3" style="stroke:#038048;stroke-width:1;"/><text fill="#FFFFFF" font-family="sans-serif" font-size="14" lengthAdjust="spacing" textLength="146.0088" x="400.3" y="153.7764">location_id : int &#171;FK&#187;</text><line style="stroke:#E7E7E7;stroke-width:0.5;" x1="381.3" x2="566.4436" y1="161.0781" y2="161.0781"/></g><!--class Product--><g class="entity" data-entity="Product" data-source-line="30" data-uid="ent0005" id="entity_Product"><rect fill="#313139" height="162.0781" rx="2.5" ry="2.5" style="stroke:#E7E7E7;stroke-width:0.5;" width="243.8682" x="294.94" y="707.94"/><ellipse cx="385.7691" cy="723.94" fill="#2E5233" rx="11" ry="11" style="stroke:#E7E7E7;stroke-width:1;"/><path d="M389.8785,729.94 L382.1597,729.94 L382.1597,717.5494 L389.8785,717.5494 L389.8785,719.7056 L384.6129,719.7056 L384.6129,722.3775 L389.3785,722.3775 L389.3785,724.5337 L384.6129,724.5337 L384.6129,727.7837 L389.8785,727.7837 L389.8785,729.94 Z " fill="#FFFFFF"/><text fill="#FFFFFF" font-family="sans-serif" font-size="14" lengthAdjust="spacing" textLength="53.71" x="406.2691" y="728.7867">Product</text><line style="stroke:#E7E7E7;stroke-width:0.5;" x1="295.94" x2="537.8082" y1="739.94" y2="739.94"/><ellipse cx="305.94" cy="753.5884" fill="none" rx="3" ry="3" style="stroke:#038048;stroke-width:1;"/><text fill="#FFFFFF" font-family="sans-serif" font-size="14" lengthAdjust="spacing" textLength="145.0039" x="314.94" y="756.9351">product_id : int &#171;PK&#187;</text><ellipse cx="305.94" cy="769.8853" fill="none" rx="3" ry="3" style="stroke:#038048;stroke-width:1;"/><text fill="#FFFFFF" font-family="sans-serif" font-size="14" lengthAdjust="spacing" textLength="93.5088" x="314.94" y="773.232">name : string</text><ellipse cx="305.94" cy="786.1822" fill="none" rx="3" ry="3" style="stroke:#038048;stroke-width:1;"/><text fill="#FFFFFF" font-family="sans-serif" font-size="14" lengthAdjust="spacing" textLength="131.6465" x="314.94" y="789.5289">description : string</text><ellipse cx="305.94" cy="802.4791" fill="none" rx="3" ry="3" style="stroke:#038048;stroke-width:1;"/><text fill="#FFFFFF" font-family="sans-serif" font-size="14" lengthAdjust="spacing" textLength="115.6777" x="314.94" y="805.8257">category : string</text><ellipse cx="305.94" cy="818.7759" fill="none" rx="3" ry="3" style="stroke:#038048;stroke-width:1;"/><text fill="#FFFFFF" font-family="sans-serif" font-size="14" lengthAdjust="spacing" textLength="79.9121" x="314.94" y="822.1226">price : float</text><ellipse cx="305.94" cy="835.0728" fill="none" rx="3" ry="3" style="stroke:#038048;stroke-width:1;"/><text fill="#FFFFFF" font-family="sans-serif" font-size="14" lengthAdjust="spacing" textLength="217.8682" x="314.94" y="838.4195">requires_prescription : boolean</text><ellipse cx="305.94" cy="851.3697" fill="none" rx="3" ry="3" style="stroke:#038048;stroke-width:1;"/><text fill="#FFFFFF" font-family="sans-serif" font-size="14" lengthAdjust="spacing" textLength="160.7539" x="314.94" y="854.7164">pharmacy_id : int &#171;FK&#187;</text><line style="stroke:#E7E7E7;stroke-width:0.5;" x1="295.94" x2="537.8082" y1="862.0181" y2="862.0181"/></g><!--class Order--><g class="entity" data-entity="Order" data-source-line="40" data-uid="ent0006" id="entity_Order"><rect fill="#313139" height="129.4844" rx="2.5" ry="2.5" style="stroke:#E7E7E7;stroke-width:0.5;" width="177.5186" x="54.11" y="270.53"/><ellipse cx="118.6037" cy="286.53" fill="#2E5233" rx="11" ry="11" style="stroke:#E7E7E7;stroke-width:1;"/><path d="M122.713,292.53 L114.9943,292.53 L114.9943,280.1394 L122.713,280.1394 L122.713,282.2956 L117.4474,282.2956 L117.4474,284.9675 L122.213,284.9675 L122.213,287.1238 L117.4474,287.1238 L117.4474,290.3738 L122.713,290.3738 L122.713,292.53 Z " fill="#FFFFFF"/><text fill="#FFFFFF" font-family="sans-serif" font-size="14" lengthAdjust="spacing" textLength="40.0313" x="139.1037" y="291.3767">Order</text><line style="stroke:#E7E7E7;stroke-width:0.5;" x1="55.11" x2="230.6286" y1="302.53" y2="302.53"/><ellipse cx="65.11" cy="316.1784" fill="none" rx="3" ry="3" style="stroke:#038048;stroke-width:1;"/><text fill="#FFFFFF" font-family="sans-serif" font-size="14" lengthAdjust="spacing" textLength="128.4268" x="74.11" y="319.5251">order_id : int &#171;PK&#187;</text><ellipse cx="65.11" cy="332.4753" fill="none" rx="3" ry="3" style="stroke:#038048;stroke-width:1;"/><text fill="#FFFFFF" font-family="sans-serif" font-size="14" lengthAdjust="spacing" textLength="120.9961" x="74.11" y="335.822">user_id : int &#171;FK&#187;</text><ellipse cx="65.11" cy="348.7722" fill="none" rx="3" ry="3" style="stroke:#038048;stroke-width:1;"/><text fill="#FFFFFF" font-family="sans-serif" font-size="14" lengthAdjust="spacing" textLength="118.9248" x="74.11" y="352.1189">total_price : float</text><ellipse cx="65.11" cy="365.0691" fill="none" rx="3" ry="3" style="stroke:#038048;stroke-width:1;"/><text fill="#FFFFFF" font-family="sans-serif" font-size="14" lengthAdjust="spacing" textLength="96.8242" x="74.11" y="368.4157">status : string</text><ellipse cx="65.11" cy="381.3659" fill="none" rx="3" ry="3" style="stroke:#038048;stroke-width:1;"/><text fill="#FFFFFF" font-family="sans-serif" font-size="14" lengthAdjust="spacing" textLength="151.5186" x="74.11" y="384.7126">created_at : datetime</text><line style="stroke:#E7E7E7;stroke-width:0.5;" x1="55.11" x2="230.6286" y1="392.0144" y2="392.0144"/></g><!--class OrderItem--><g class="entity" data-entity="OrderItem" data-source-line="48" data-uid="ent0007" id="entity_OrderItem"><rect fill="#313139" height="129.4844" rx="2.5" ry="2.5" style="stroke:#E7E7E7;stroke-width:0.5;" width="193.0566" x="245.35" y="501.46"/><ellipse cx="301.6781" cy="517.46" fill="#2E5233" rx="11" ry="11" style="stroke:#E7E7E7;stroke-width:1;"/><path d="M305.7875,523.46 L298.0688,523.46 L298.0688,511.0694 L305.7875,511.0694 L305.7875,513.2256 L300.5219,513.2256 L300.5219,515.8975 L305.2875,515.8975 L305.2875,518.0538 L300.5219,518.0538 L300.5219,521.3038 L305.7875,521.3038 L305.7875,523.46 Z " fill="#FFFFFF"/><text fill="#FFFFFF" font-family="sans-serif" font-size="14" lengthAdjust="spacing" textLength="71.9004" x="322.1781" y="522.3067">OrderItem</text><line style="stroke:#E7E7E7;stroke-width:0.5;" x1="246.35" x2="437.4066" y1="533.46" y2="533.46"/><ellipse cx="256.35" cy="547.1084" fill="none" rx="3" ry="3" style="stroke:#038048;stroke-width:1;"/><text fill="#FFFFFF" font-family="sans-serif" font-size="14" lengthAdjust="spacing" textLength="167.0566" x="265.35" y="550.4551">order_item_id : int &#171;PK&#187;</text><ellipse cx="256.35" cy="563.4053" fill="none" rx="3" ry="3" style="stroke:#038048;stroke-width:1;"/><text fill="#FFFFFF" font-family="sans-serif" font-size="14" lengthAdjust="spacing" textLength="128.0371" x="265.35" y="566.752">order_id : int &#171;FK&#187;</text><ellipse cx="256.35" cy="579.7022" fill="none" rx="3" ry="3" style="stroke:#038048;stroke-width:1;"/><text fill="#FFFFFF" font-family="sans-serif" font-size="14" lengthAdjust="spacing" textLength="144.6143" x="265.35" y="583.0489">product_id : int &#171;FK&#187;</text><ellipse cx="256.35" cy="595.9991" fill="none" rx="3" ry="3" style="stroke:#038048;stroke-width:1;"/><text fill="#FFFFFF" font-family="sans-serif" font-size="14" lengthAdjust="spacing" textLength="90.2344" x="265.35" y="599.3457">quantity : int</text><ellipse cx="256.35" cy="612.2959" fill="none" rx="3" ry="3" style="stroke:#038048;stroke-width:1;"/><text fill="#FFFFFF" font-family="sans-serif" font-size="14" lengthAdjust="spacing" textLength="79.9121" x="265.35" y="615.6426">price : float</text><line style="stroke:#E7E7E7;stroke-width:0.5;" x1="246.35" x2="437.4066" y1="622.9444" y2="622.9444"/></g><!--class Payment--><g class="entity" data-entity="Payment" data-source-line="56" data-uid="ent0008" id="entity_Payment"><rect fill="#313139" height="129.4844" rx="2.5" ry="2.5" style="stroke:#E7E7E7;stroke-width:0.5;" width="203.748" x="7" y="501.46"/><ellipse cx="73.6641" cy="517.46" fill="#2E5233" rx="11" ry="11" style="stroke:#E7E7E7;stroke-width:1;"/><path d="M77.7734,523.46 L70.0547,523.46 L70.0547,511.0694 L77.7734,511.0694 L77.7734,513.2256 L72.5078,513.2256 L72.5078,515.8975 L77.2734,515.8975 L77.2734,518.0538 L72.5078,518.0538 L72.5078,521.3038 L77.7734,521.3038 L77.7734,523.46 Z " fill="#FFFFFF"/><text fill="#FFFFFF" font-family="sans-serif" font-size="14" lengthAdjust="spacing" textLength="61.9199" x="94.1641" y="522.3067">Payment</text><line style="stroke:#E7E7E7;stroke-width:0.5;" x1="8" x2="209.748" y1="533.46" y2="533.46"/><ellipse cx="18" cy="547.1084" fill="none" rx="3" ry="3" style="stroke:#038048;stroke-width:1;"/><text fill="#FFFFFF" font-family="sans-serif" font-size="14" lengthAdjust="spacing" textLength="153.2139" x="27" y="550.4551">payment_id : int &#171;PK&#187;</text><ellipse cx="18" cy="563.4053" fill="none" rx="3" ry="3" style="stroke:#038048;stroke-width:1;"/><text fill="#FFFFFF" font-family="sans-serif" font-size="14" lengthAdjust="spacing" textLength="128.0371" x="27" y="566.752">order_id : int &#171;FK&#187;</text><ellipse cx="18" cy="579.7022" fill="none" rx="3" ry="3" style="stroke:#038048;stroke-width:1;"/><text fill="#FFFFFF" font-family="sans-serif" font-size="14" lengthAdjust="spacing" textLength="99.0869" x="27" y="583.0489">amount : float</text><ellipse cx="18" cy="595.9991" fill="none" rx="3" ry="3" style="stroke:#038048;stroke-width:1;"/><text fill="#FFFFFF" font-family="sans-serif" font-size="14" lengthAdjust="spacing" textLength="166.1885" x="27" y="599.3457">payment_status : string</text><ellipse cx="18" cy="612.2959" fill="none" rx="3" ry="3" style="stroke:#038048;stroke-width:1;"/><text fill="#FFFFFF" font-family="sans-serif" font-size="14" lengthAdjust="spacing" textLength="177.748" x="27" y="615.6426">payment_date : datetime</text><line style="stroke:#E7E7E7;stroke-width:0.5;" x1="8" x2="209.748" y1="622.9444" y2="622.9444"/></g><!--link User to Order--><g class="link" data-entity-1="User" data-entity-2="Order" data-source-line="64" data-uid="lnk9" id="link_User_Order"><path codeLine="64" d="M182.9685,160.661 C178.2385,175.691 175.86,184.07 171.87,199.08 C165.74,222.17 163.6917,230.1126 158.9517,252.7326" fill="none" id="User-Order" style="stroke:#E7E7E7;stroke-width:1;"/><line style="stroke:#E7E7E7;stroke-width:1;" x1="180.3537" x2="187.9848" y1="155.6448" y2="158.0463"/><line style="stroke:#E7E7E7;stroke-width:1;" x1="179.4532" x2="187.0842" y1="158.5064" y2="160.9079"/><line style="stroke:#E7E7E7;stroke-width:1;" x1="182.9685" x2="185.37" y1="160.661" y2="153.03"/><line style="stroke:#E7E7E7;stroke-width:1;" x1="156.9008" x2="161.1325" y1="262.5201" y2="271.5806"/><line style="stroke:#E7E7E7;stroke-width:1;" x1="156.9008" x2="149.3875" y1="262.5201" y2="269.1194"/><line style="stroke:#E7E7E7;stroke-width:1;" x1="156.9008" x2="155.26" y1="262.5201" y2="270.35"/><ellipse cx="158.1313" cy="256.6476" fill="none" rx="4" ry="4" style="stroke:#E7E7E7;stroke-width:1;"/><text fill="#FFFFFF" font-family="sans-serif" font-size="13" lengthAdjust="spacing" textLength="41.7485" x="172.87" y="212.1469">places</text></g><!--link Order to OrderItem--><g class="link" data-entity-1="Order" data-entity-2="OrderItem" data-source-line="65" data-uid="lnk10" id="link_Order_OrderItem"><path codeLine="65" d="M203.8181,406.378 C231.1881,437.868 247.0222,456.0741 274.3822,487.5541" fill="none" id="Order-OrderItem" style="stroke:#E7E7E7;stroke-width:1;"/><line style="stroke:#E7E7E7;stroke-width:1;" x1="198.175" x2="204.213" y1="405.983" y2="400.735"/><line style="stroke:#E7E7E7;stroke-width:1;" x1="200.143" x2="206.1811" y1="408.2473" y2="402.9993"/><line style="stroke:#E7E7E7;stroke-width:1;" x1="203.8181" x2="198.57" y1="406.378" y2="400.34"/><line style="stroke:#E7E7E7;stroke-width:1;" x1="280.9421" x2="290.7186" y1="495.1018" y2="497.2041"/><line style="stroke:#E7E7E7;stroke-width:1;" x1="280.9421" x2="281.6614" y1="495.1018" y2="505.0759"/><line style="stroke:#E7E7E7;stroke-width:1;" x1="280.9421" x2="286.19" y1="495.1018" y2="501.14"/><ellipse cx="277.0062" cy="490.5732" fill="none" rx="4" ry="4" style="stroke:#E7E7E7;stroke-width:1;"/><text fill="#FFFFFF" font-family="sans-serif" font-size="13" lengthAdjust="spacing" textLength="55.0278" x="260.87" y="467.5269">contains</text></g><!--link OrderItem to Product--><g class="link" data-entity-1="OrderItem" data-entity-2="Product" data-source-line="66" data-uid="lnk11" id="link_OrderItem_Product"><path codeLine="66" d="M369.463,648.4023 C377.553,672.2023 378.4567,674.8952 386.9767,699.9752" fill="none" id="OrderItem-Product" style="stroke:#E7E7E7;stroke-width:1;"/><line style="stroke:#E7E7E7;stroke-width:1;" x1="366.2447" x2="357.9892" y1="638.9344" y2="633.291"/><line style="stroke:#E7E7E7;stroke-width:1;" x1="366.2447" x2="369.3508" y1="638.9344" y2="629.429"/><line style="stroke:#E7E7E7;stroke-width:1;" x1="366.2447" x2="363.67" y1="638.9344" y2="631.36"/><ellipse cx="368.1756" cy="644.6152" fill="none" rx="4" ry="4" style="stroke:#E7E7E7;stroke-width:1;"/><line style="stroke:#E7E7E7;stroke-width:1;" x1="392.0508" x2="384.4759" y1="702.4759" y2="705.0492"/><line style="stroke:#E7E7E7;stroke-width:1;" x1="391.0858" x2="383.511" y1="699.6354" y2="702.2086"/><line style="stroke:#E7E7E7;stroke-width:1;" x1="386.9767" x2="389.55" y1="699.9752" y2="707.55"/><text fill="#FFFFFF" font-family="sans-serif" font-size="13" lengthAdjust="spacing" textLength="53.8726" x="379.87" y="674.0069">includes</text></g><!--link Pharmacy to Product--><g class="link" data-entity-1="Pharmacy" data-entity-2="Product" data-source-line="67" data-uid="lnk12" id="link_Pharmacy_Product"><path codeLine="67" d="M476.6272,177.3783 C478.8472,283.5683 478.56,468.26 455.87,630.94 C452.36,656.12 450.8744,665.6697 444.7044,690.0597" fill="none" id="Pharmacy-Product" style="stroke:#E7E7E7;stroke-width:1;"/><line style="stroke:#E7E7E7;stroke-width:1;" x1="472.5445" x2="480.5427" y1="173.4627" y2="173.2955"/><line style="stroke:#E7E7E7;stroke-width:1;" x1="472.6072" x2="480.6054" y1="176.4621" y2="176.2949"/><line style="stroke:#E7E7E7;stroke-width:1;" x1="476.6272" x2="476.46" y1="177.3783" y2="169.38"/><line style="stroke:#E7E7E7;stroke-width:1;" x1="442.252" x2="446.1068" y1="699.7543" y2="708.9815"/><line style="stroke:#E7E7E7;stroke-width:1;" x1="442.252" x2="434.4732" y1="699.7543" y2="706.0385"/><line style="stroke:#E7E7E7;stroke-width:1;" x1="442.252" x2="440.29" y1="699.7543" y2="707.51"/><ellipse cx="443.7235" cy="693.9376" fill="none" rx="4" ry="4" style="stroke:#E7E7E7;stroke-width:1;"/><text fill="#FFFFFF" font-family="sans-serif" font-size="13" lengthAdjust="spacing" textLength="37.2227" x="472.87" y="467.5269">offers</text></g><!--link Pharmacy to Location--><g class="link" data-entity-1="Pharmacy" data-entity-2="Location" data-source-line="68" data-uid="lnk13" id="link_Pharmacy_Location"><path codeLine="68" d="M404.133,184.6596 C398.033,194.4096 401.82,189.17 396.87,199.08 C389.55,213.77 385.7134,222.4028 380.1234,238.3028" fill="none" id="Pharmacy-Location" style="stroke:#E7E7E7;stroke-width:1;"/><line style="stroke:#E7E7E7;stroke-width:1;" x1="409.4369" x2="408.5935" y1="176.182" y2="166.2177"/><line style="stroke:#E7E7E7;stroke-width:1;" x1="409.4369" x2="418.7665" y1="176.182" y2="172.5823"/><line style="stroke:#E7E7E7;stroke-width:1;" x1="409.4369" x2="413.68" y1="176.182" y2="169.4"/><ellipse cx="406.2545" cy="181.2686" fill="none" rx="4" ry="4" style="stroke:#E7E7E7;stroke-width:1;"/><line style="stroke:#E7E7E7;stroke-width:1;" x1="382.5703" x2="375.0231" y1="243.4031" y2="240.7497"/><line style="stroke:#E7E7E7;stroke-width:1;" x1="383.5653" x2="376.0181" y1="240.5729" y2="237.9195"/><line style="stroke:#E7E7E7;stroke-width:1;" x1="380.1234" x2="377.47" y1="238.3028" y2="245.85"/><text fill="#FFFFFF" font-family="sans-serif" font-size="13" lengthAdjust="spacing" textLength="67.5898" x="397.87" y="212.1469">located_at</text></g><!--link Order to Payment--><g class="link" data-entity-1="Order" data-entity-2="Payment" data-source-line="69" data-uid="lnk14" id="link_Order_Payment"><path codeLine="69" d="M132.184,408.2531 C127.504,439.7431 125.7014,451.8549 121.0314,483.3349" fill="none" id="Order-Payment" style="stroke:#E7E7E7;stroke-width:1;"/><line style="stroke:#E7E7E7;stroke-width:1;" x1="128.8154" x2="136.7285" y1="403.7085" y2="404.8846"/><line style="stroke:#E7E7E7;stroke-width:1;" x1="128.3744" x2="136.2875" y1="406.6759" y2="407.852"/><line style="stroke:#E7E7E7;stroke-width:1;" x1="132.184" x2="133.36" y1="408.2531" y2="400.34"/><line style="stroke:#E7E7E7;stroke-width:1;" x1="119.5639" x2="124.325" y1="493.2266" y2="502.0205"/><line style="stroke:#E7E7E7;stroke-width:1;" x1="119.5639" x2="112.455" y1="493.2266" y2="500.2595"/><line style="stroke:#E7E7E7;stroke-width:1;" x1="119.5639" x2="118.39" y1="493.2266" y2="501.14"/><ellipse cx="120.4444" cy="487.2916" fill="none" rx="4" ry="4" style="stroke:#E7E7E7;stroke-width:1;"/><text fill="#FFFFFF" font-family="sans-serif" font-size="13" lengthAdjust="spacing" textLength="52.0063" x="125.87" y="467.5269">initiates</text></g><!--link User to Location--><g class="link" data-entity-1="User" data-entity-2="Location" data-source-line="70" data-uid="lnk15" id="link_User_Location"><path codeLine="70" d="M254.2509,168.6147 C271.0709,196.8547 277.7979,208.1658 296.0079,238.7558" fill="none" id="User-Location" style="stroke:#E7E7E7;stroke-width:1;"/><line style="stroke:#E7E7E7;stroke-width:1;" x1="249.1338" x2="239.8851" y1="160.0232" y2="156.2203"/><line style="stroke:#E7E7E7;stroke-width:1;" x1="249.1338" x2="250.1949" y1="160.0232" y2="150.0797"/><line style="stroke:#E7E7E7;stroke-width:1;" x1="249.1338" x2="245.04" y1="160.0232" y2="153.15"/><ellipse cx="252.2041" cy="165.1781" fill="none" rx="4" ry="4" style="stroke:#E7E7E7;stroke-width:1;"/><line style="stroke:#E7E7E7;stroke-width:1;" x1="301.491" x2="294.6168" y1="240.1468" y2="244.239"/><line style="stroke:#E7E7E7;stroke-width:1;" x1="299.9565" x2="293.0823" y1="237.569" y2="241.6612"/><line style="stroke:#E7E7E7;stroke-width:1;" x1="296.0079" x2="300.1" y1="238.7558" y2="245.63"/><text fill="#FFFFFF" font-family="sans-serif" font-size="13" lengthAdjust="spacing" textLength="66.314" x="280.87" y="212.1469">resides_at</text></g><!--SRC=[fLHDQ-Gm3BtdLvXUb_a3fVHOABkmlVHKIb1jpTJWM1bRcMNezB-ldA-9dHHswIrwKgId9rdesV9PtJn733VgerBgX-hakxP6tIhhMTtTFVsyl-yT7XeKD7Am_j0Zs81rETH2Z7yec1orFdO1lCQw3NIo1aES0rvUgy-gmf79BzB0blp4nets9YDDdUTmBXYa2b8gHurDXkOSZQYPGewTh7DmA7vtGe8xaz2z8-2Hcp_awAAHftS83UZpr4Wxsj-Gzfry4GN618on43lMeDcUKkmRaKFmNqhva1WiMGSodUQPz63-8sU3KGVRfXgvG-hYWTQ3iZeNDE2nizAGR4cMQjd5bevb5x-3kUup9MEpWtBJ7oO74uEhr_mY0tU5sZgWT6TgIAjbv9DjWoioZunDGKYGJLOhlZEjZMdClcC7GxtUiw7lSiXmRkHx7l9W_YSPQDBZo-IP4ct9DFcIGeLGwVYeosMtem_LYoN-re76M0tcqfU45Bycpo1NfRg2dxJRNIvgtE2Ui7RoE6CrFSKfqJM4zdivHTU0CSTqX2IYVpJzU7CoeuPz6SjMOkBGo3g5xB9SF7cK_1S0]--></g></svg>